<?xml version="1.0" encoding="UTF-8" standalone="no"?>
<!-- Generator: Adobe Illustrator 18.0.0, SVG Export Plug-In . SVG Version: 6.00 Build 0)  -->

<svg
   xmlns:dc="http://purl.org/dc/elements/1.1/"
   xmlns:cc="http://creativecommons.org/ns#"
   xmlns:rdf="http://www.w3.org/1999/02/22-rdf-syntax-ns#"
   xmlns:svg="http://www.w3.org/2000/svg"
   xmlns="http://www.w3.org/2000/svg"
   xmlns:sodipodi="http://sodipodi.sourceforge.net/DTD/sodipodi-0.dtd"
   xmlns:inkscape="http://www.inkscape.org/namespaces/inkscape"
   version="1.1"
   id="Capa_1"
   x="0px"
   y="0px"
   viewBox="0 0 416 176.06606"
   xml:space="preserve"
   inkscape:version="0.91 r13725"
   sodipodi:docname="scale.svg"
   width="416"
   height="176.06606"><title
     id="title4167">Ruler</title><metadata
     id="metadata39"><rdf:RDF><cc:Work
         rdf:about=""><dc:format>image/svg+xml</dc:format><dc:type
           rdf:resource="http://purl.org/dc/dcmitype/StillImage" /><dc:title>Ruler</dc:title><cc:license
           rdf:resource="http://creativecommons.org/licenses/by-nc/3.0/" /></cc:Work><cc:License
         rdf:about="http://creativecommons.org/licenses/by-nc/3.0/"><cc:permits
           rdf:resource="http://creativecommons.org/ns#Reproduction" /><cc:permits
           rdf:resource="http://creativecommons.org/ns#Distribution" /><cc:requires
           rdf:resource="http://creativecommons.org/ns#Notice" /><cc:requires
           rdf:resource="http://creativecommons.org/ns#Attribution" /><cc:prohibits
           rdf:resource="http://creativecommons.org/ns#CommercialUse" /><cc:permits
           rdf:resource="http://creativecommons.org/ns#DerivativeWorks" /></cc:License></rdf:RDF></metadata><defs
     id="defs37" /><sodipodi:namedview
     pagecolor="#ffffff"
     bordercolor="#666666"
     borderopacity="1"
     objecttolerance="10"
     gridtolerance="10"
     guidetolerance="10"
     inkscape:pageopacity="0"
     inkscape:pageshadow="2"
     inkscape:window-width="731"
     inkscape:window-height="480"
     id="namedview35"
     showgrid="false"
     inkscape:showpageshadow="false"
     fit-margin-top="0"
     fit-margin-left="0"
     fit-margin-right="0"
     fit-margin-bottom="0"
     inkscape:zoom="0.56730769"
     inkscape:cx="208"
     inkscape:cy="88.032"
     inkscape:window-x="0"
     inkscape:window-y="0"
     inkscape:window-maximized="0"
     inkscape:current-layer="Capa_1" /><path
     d="m 412,41.727048 -273.023,0 0,-4.89 c 0,-2.209 -1.791,-4 -4,-4 l -14.545,0 0,-10.8 c 0,-2.209 -1.791,-4 -4,-4 l -16.228,0 c -2.209,0 -4,1.791 -4,4 l 0,10.8 -11.578,0 c -0.857,-4.566 -2.295,-8.985 -4.289,-13.176 -3.464,-7.309 -8.407,-13.6210001 -14.691,-18.75800007 -1.197,-0.979 -2.849,-1.178 -4.246,-0.518 C 60.004,1.0470479 59.114,2.4540479 59.114,3.9990479 l 0,37.7270001 -13.165,0 0,-37.7270001 c 0,-1.545 -0.89,-2.951 -2.285,-3.61399997 -1.395,-0.66 -3.047,-0.461 -4.245,0.516 C 27.058,10.994048 19.843,25.819048 19.508,41.726048 l -15.508,0 c -2.209,0 -4,1.791 -4,4 l 0,59.114002 c 0,0.359 0.048,0.717 0.144,1.063 l 18.546,67.227 c 0.479,1.735 2.057,2.936 3.856,2.936 l 19.403,0 c 2.209,0 4,-1.791 4,-4 l 0,-75.977002 13.165,0 0,75.977002 c 0,2.209 1.791,4 4,4 l 19.403,0 c 1.799,0 3.377,-1.201 3.856,-2.936 l 17.735,-64.29 30.869,0 c 2.209,0 4,-1.791 4,-4 l 0,-8.750002 273.023,0 c 2.209,0 4,-1.791 4,-4 l 0,-46.364 c 0,-2.208 -1.791,-3.999 -4,-3.999 z m -307.795,-15.69 8.228,0 0,6.8 -8.228,0 0,-6.8 z m -37.091,-12.429 c 2.367,2.887 4.371,6.057 5.996,9.484 2.133,4.481 3.518,9.267 4.115,14.223 0.242,2.01 1.947,3.521 3.971,3.521 l 49.782,0 0,13.64 -63.864,0 0,-40.868 z m 63.863,87.233002 -29.915,0 c -1.799,0 -3.378,1.201 -3.856,2.936 l -17.735,64.29 -12.357,0 0,-80.867002 63.864,0 0,13.641002 z M 408,88.091048 l -13.818,0 0,-7.854 -8,0 0,7.854 -10.205,0 0,-13.722 -8,0 0,13.722 -10.205,0 0,-7.854 -8,0 0,7.854 -10.205,0 0,-7.854 -8,0 0,7.854 -10.205,0 0,-7.854 -8,0 0,7.854 -10.205,0 0,-13.722 -8,0 0,13.722 -10.205,0 0,-7.854 -8,0 0,7.854 -10.202,0 0,-7.854 -8,0 0,7.854 -10.204,0 0,-7.854 -8,0 0,7.854 -10.205,0 0,-13.722 -8,0 0,13.722 -10.205,0 0,-7.854 -8,0 0,7.854 -10.205,0 0,-7.854 -8,0 0,7.854 -10.205,0 0,-7.854 -8,0 0,7.854 -10.205,0 0,-13.722 -8,0 0,13.722 -10.545,0 0,-4.891 c 0,-2.209 -1.791,-4 -4,-4 l -71.862,0 c -2.209,0 -4,1.791 -4,4 l 0,4.891 -17.165,0 c -2.209,0 -4,1.791 -4,4 l 0,75.977002 -12.357,0 L 8,104.29905 8,49.727048 l 15.496,0 c 2.209,0 4,-1.791 4,-4 l 0,-2.84 c 0,-10.818 3.731,-21.101 10.453,-29.282 l 0,32.122 c 0,2.209 1.791,4 4,4 l 17.165,0 0,8.75 c 0,2.209 1.791,4 4,4 l 71.864,0 c 2.209,0 4,-1.791 4,-4 l 0,-8.75 269.022,0 0,38.364 z"
     id="path3"
     inkscape:connector-curvature="0" /><g
     id="g5"
     transform="translate(0,-119.96595)" /><g
     id="g7"
     transform="translate(0,-119.96595)" /><g
     id="g9"
     transform="translate(0,-119.96595)" /><g
     id="g11"
     transform="translate(0,-119.96595)" /><g
     id="g13"
     transform="translate(0,-119.96595)" /><g
     id="g15"
     transform="translate(0,-119.96595)" /><g
     id="g17"
     transform="translate(0,-119.96595)" /><g
     id="g19"
     transform="translate(0,-119.96595)" /><g
     id="g21"
     transform="translate(0,-119.96595)" /><g
     id="g23"
     transform="translate(0,-119.96595)" /><g
     id="g25"
     transform="translate(0,-119.96595)" /><g
     id="g27"
     transform="translate(0,-119.96595)" /><g
     id="g29"
     transform="translate(0,-119.96595)" /><g
     id="g31"
     transform="translate(0,-119.96595)" /><g
     id="g33"
     transform="translate(0,-119.96595)" /></svg>